<?xml version="1.0" encoding="utf-8"?>
<!-- Generator: Adobe Illustrator 16.0.0, SVG Export Plug-In . SVG Version: 6.00 Build 0)  -->
<!DOCTYPE svg PUBLIC "-//W3C//DTD SVG 1.1//EN" "http://www.w3.org/Graphics/SVG/1.1/DTD/svg11.dtd">
<svg version="1.1" id="Layer_1" xmlns="http://www.w3.org/2000/svg" xmlns:xlink="http://www.w3.org/1999/xlink" x="0px" y="0px"
	 width="73px" height="73px" viewBox="0 0 73 73" enable-background="new 0 0 73 73" xml:space="preserve">
<g>
	<g>
		
			<ellipse fill="none" stroke="#000000" stroke-width="3" stroke-linecap="round" stroke-linejoin="round" stroke-miterlimit="10" cx="55.733" cy="17.326" rx="15.767" ry="15.827"/>
	</g>
	<path fill="none" stroke="#000000" stroke-width="3" stroke-linecap="round" stroke-linejoin="round" stroke-miterlimit="10" d="
		M32.802,24.286c0,4.768-3.852,8.634-8.602,8.634H10.102c-4.751,0-8.602-3.866-8.602-8.634V10.134C1.5,5.365,5.351,1.5,10.102,1.5
		h14.099c4.75,0,8.602,3.865,8.602,8.634V24.286z"/>
	<path fill="none" stroke="#000000" stroke-width="3" stroke-linecap="round" stroke-linejoin="round" stroke-miterlimit="10" d="
		M32.802,62.865c0,4.768-3.852,8.635-8.602,8.635H10.102c-4.751,0-8.602-3.867-8.602-8.635V48.713c0-4.768,3.851-8.634,8.602-8.634
		h14.099c4.75,0,8.602,3.866,8.602,8.634V62.865z"/>
	<path fill="none" stroke="#000000" stroke-width="3" stroke-linecap="round" stroke-linejoin="round" stroke-miterlimit="10" d="
		M62.782,71.5H48.684c-4.751,0-8.603-3.867-8.603-8.635V48.713c0-4.768,3.852-8.634,8.603-8.634h14.098
		c4.751,0,8.603,3.866,8.603,8.634v14.152"/>
</g>
</svg>
