<?xml version="1.0" encoding="utf-8"?>
<!-- Generator: Adobe Illustrator 16.0.0, SVG Export Plug-In . SVG Version: 6.00 Build 0)  -->
<!DOCTYPE svg PUBLIC "-//W3C//DTD SVG 1.1//EN" "http://www.w3.org/Graphics/SVG/1.1/DTD/svg11.dtd">
<svg version="1.1" id="Layer_1" xmlns="http://www.w3.org/2000/svg" xmlns:xlink="http://www.w3.org/1999/xlink" x="0px" y="0px"
	 width="90.6px" height="72.982px" viewBox="0 0 90.6 72.982" enable-background="new 0 0 90.6 72.982" xml:space="preserve">
<g>
	<path fill="none" stroke="#000000" stroke-width="3" stroke-linecap="round" stroke-linejoin="round" stroke-miterlimit="10" d="
		M45.3,71.482c-1.422-0.076-3.01-0.57-4.762-1.396c-5.396-2.527-12.19-8.178-19.301-14.604C9.96,45.299-1.824,36.054,2.366,21.451
		C6.557,6.835,21.795-1.609,36.398,2.568c3.644,1.042,6.565,4.013,8.901,6.222c0,0,0,0,0.013,0c2.337-2.209,5.245-5.181,8.89-6.222
		c14.615-4.178,29.854,4.267,34.031,18.883c4.189,14.603-7.582,23.848-18.869,34.031c-5.402,4.877-10.625,9.317-15.189,12.275"/>
	<path fill="none" stroke="#000000" stroke-width="2" stroke-linecap="round" stroke-linejoin="round" stroke-miterlimit="10" d="
		M67.38,11.487c3.963,1.33,8.063,3.885,10.183,8.762"/>
</g>
</svg>
