<?xml version="1.0" encoding="utf-8"?>
<!-- Generator: Adobe Illustrator 16.0.0, SVG Export Plug-In . SVG Version: 6.00 Build 0)  -->
<!DOCTYPE svg PUBLIC "-//W3C//DTD SVG 1.1//EN" "http://www.w3.org/Graphics/SVG/1.1/DTD/svg11.dtd">
<svg version="1.1" id="Layer_1" xmlns="http://www.w3.org/2000/svg" xmlns:xlink="http://www.w3.org/1999/xlink" x="0px" y="0px"
	 width="40.334px" height="73px" viewBox="0 0 40.334 73" enable-background="new 0 0 40.334 73" xml:space="preserve">
<g>
	<path fill="none" stroke="#000000" stroke-width="3" stroke-linecap="round" stroke-linejoin="round" stroke-miterlimit="10" d="
		M10.834,67.278c0,2.332-2.09,4.222-4.667,4.222l0,0C3.59,71.5,1.5,69.61,1.5,67.278V5.722C1.5,3.39,3.59,1.5,6.167,1.5l0,0
		c2.577,0,4.667,1.89,4.667,4.222V67.278z"/>
	<path fill="none" stroke="#000000" stroke-width="3" stroke-linecap="round" stroke-linejoin="round" stroke-miterlimit="10" d="
		M38.834,62.118v5.16c0,2.332-2.09,4.222-4.667,4.222l0,0c-2.577,0-4.667-1.89-4.667-4.222V5.722c0-2.332,2.09-4.222,4.667-4.222
		l0,0c2.577,0,4.667,1.89,4.667,4.222v48.896"/>
</g>
</svg>
