<?xml version="1.0" encoding="utf-8"?>
<!-- Generator: Adobe Illustrator 16.0.0, SVG Export Plug-In . SVG Version: 6.00 Build 0)  -->
<!DOCTYPE svg PUBLIC "-//W3C//DTD SVG 1.1//EN" "http://www.w3.org/Graphics/SVG/1.1/DTD/svg11.dtd">
<svg version="1.1" id="Layer_1" xmlns="http://www.w3.org/2000/svg" xmlns:xlink="http://www.w3.org/1999/xlink" x="0px" y="0px"
	 width="73px" height="72.5px" viewBox="0 0 73 72.5" enable-background="new 0 0 73 72.5" xml:space="preserve">
<g>
	<g>
		
			<circle fill="none" stroke="#000000" stroke-width="3" stroke-linecap="round" stroke-linejoin="round" stroke-miterlimit="10" cx="30.337" cy="58.153" r="6.162"/>
		<path fill="none" stroke="#000000" stroke-width="3" stroke-linecap="round" stroke-linejoin="round" stroke-miterlimit="10" d="
			M36.499,58.153c4-23.504-6.162-36.829-6.162-36.829s8.829,2.666,15.162-5.667c0,0,6.152,7.457-6.514,16.124"/>
	</g>
	<path fill="none" stroke="#000000" stroke-width="3" stroke-linecap="round" stroke-linejoin="round" stroke-miterlimit="10" d="
		M71.5,54.17C71.5,63.464,62.887,71,52.265,71H20.736C10.112,71,1.5,63.464,1.5,54.17V26.583c0-9.296,8.612-16.83,19.236-16.83
		h31.528c10.622,0,19.235,7.534,19.235,16.83V54.17z"/>
	<path fill="none" stroke="#000000" stroke-width="2" stroke-linecap="round" stroke-linejoin="round" stroke-miterlimit="10" d="
		M7.273,9.188c3.47-2.976,8.22-4.813,13.46-4.813h31.53c5.24,0,9.99,1.837,13.46,4.813"/>
	<path fill="none" stroke="#000000" stroke-width="2" stroke-linecap="round" stroke-linejoin="round" stroke-miterlimit="10" d="
		M10.644,3.512C13.573,1.919,17.023,1,20.733,1h31.53c3.7,0,7.17,0.919,10.1,2.512"/>
</g>
</svg>
