<?xml version="1.0" encoding="utf-8"?>
<!-- Generator: Adobe Illustrator 16.0.0, SVG Export Plug-In . SVG Version: 6.00 Build 0)  -->
<!DOCTYPE svg PUBLIC "-//W3C//DTD SVG 1.1//EN" "http://www.w3.org/Graphics/SVG/1.1/DTD/svg11.dtd">
<svg version="1.1" id="Layer_1" xmlns="http://www.w3.org/2000/svg" xmlns:xlink="http://www.w3.org/1999/xlink" x="0px" y="0px"
	 width="74px" height="68.658px" viewBox="0 0 74 68.658" enable-background="new 0 0 74 68.658" xml:space="preserve">
<g>
	<path fill="none" stroke="#000000" stroke-width="3" stroke-linecap="round" stroke-linejoin="round" stroke-miterlimit="10" d="
		M5.722,50.158c-2.332,0-4.222-2.09-4.222-4.667l0,0c0-2.577,1.89-4.667,4.222-4.667h31.557c2.332,0,4.222,2.09,4.222,4.667l0,0
		c0,2.577-1.89,4.667-4.222,4.667H5.722z"/>
	<path fill="none" stroke="#000000" stroke-width="3" stroke-linecap="round" stroke-linejoin="round" stroke-miterlimit="10" d="
		M10.882,67.158h-5.16c-2.332,0-4.222-2.09-4.222-4.667l0,0c0-2.577,1.89-4.667,4.222-4.667h61.557c2.332,0,4.222,2.09,4.222,4.667
		l0,0c0,2.577-1.89,4.667-4.222,4.667H18.382"/>
	<path fill="none" stroke="#000000" stroke-width="3" stroke-linecap="round" stroke-linejoin="round" stroke-miterlimit="10" d="
		M5.722,33.734c-2.332,0-4.222-2.09-4.222-4.667l0,0c0-2.577,1.89-4.667,4.222-4.667h31.557c2.332,0,4.222,2.09,4.222,4.667l0,0
		c0,2.577-1.89,4.667-4.222,4.667H5.722z"/>
	<g>
		
			<circle fill="none" stroke="#000000" stroke-width="3" stroke-linecap="round" stroke-linejoin="round" stroke-miterlimit="10" cx="55.845" cy="43.996" r="6.162"/>
		<path fill="none" stroke="#000000" stroke-width="3" stroke-linecap="round" stroke-linejoin="round" stroke-miterlimit="10" d="
			M62.007,43.996c4-23.504-6.162-36.829-6.162-36.829S64.674,9.833,71.007,1.5c0,0,6.151,7.457-6.515,16.124"/>
	</g>
</g>
</svg>
