<?xml version="1.0" encoding="utf-8"?>
<!-- Generator: Adobe Illustrator 16.0.0, SVG Export Plug-In . SVG Version: 6.00 Build 0)  -->
<!DOCTYPE svg PUBLIC "-//W3C//DTD SVG 1.1//EN" "http://www.w3.org/Graphics/SVG/1.1/DTD/svg11.dtd">
<svg version="1.1" id="Layer_1" xmlns="http://www.w3.org/2000/svg" xmlns:xlink="http://www.w3.org/1999/xlink" x="0px" y="0px"
	 width="73px" height="73px" viewBox="0 0 73 73" enable-background="new 0 0 73 73" xml:space="preserve">
<g>
	<path fill="none" stroke="#231F20" stroke-width="3" stroke-linecap="round" stroke-linejoin="round" stroke-miterlimit="10" d="
		M41.171,67.27c0,2.341-2.089,4.23-4.671,4.23c-1.289,0-2.449-0.471-3.289-1.238c-0.851-0.763-1.372-1.822-1.372-2.992V41.16H5.73
		c-2.338,0-4.23-2.091-4.23-4.66c0-1.291,0.471-2.459,1.241-3.299C3.5,32.35,4.56,31.83,5.73,31.83h26.109V5.72
		c0-2.33,2.091-4.22,4.661-4.22c1.291,0,2.461,0.471,3.302,1.241c0.848,0.76,1.369,1.819,1.369,2.979V31.83h26.111
		c2.328,0,4.218,2.091,4.218,4.67c0,1.28-0.469,2.451-1.238,3.289c-0.76,0.851-1.81,1.371-2.979,1.371H41.171v17.53"/>
</g>
</svg>
